HIERARCHY
ROOT Hip
{
	OFFSET	0.0000	0.0000	0.0000
	CHANNELS 6 Xposition Yposition Zposition Xrotation Yrotation Zrotation
	JOINT LowerSpine
	{
		OFFSET	0.0000	8.3453	-5.1292
		CHANNELS 3 Xrotation Yrotation Zrotation
		JOINT MiddleSpine
		{
			OFFSET	10.8569	0.0000	0.0000
			CHANNELS 3 Xrotation Yrotation Zrotation
			JOINT Chest
			{
				OFFSET	15.2984	0.0000	0.0000
				CHANNELS 3 Xrotation Yrotation Zrotation
				JOINT Neck
				{
					OFFSET	25.6618	-0.5986	0.0000
					CHANNELS 3 Xrotation Yrotation Zrotation
					JOINT Head
					{
						OFFSET	8.8829	0.0000	0.0000
						CHANNELS 3 Xrotation Yrotation Zrotation
						End Site
						{
							OFFSET	19.7399	0.0000	0.0000
						}
					}
				}
				JOINT RClavicle
				{
					OFFSET	23.6878	0.0000	3.1584
					CHANNELS 3 Xrotation Yrotation Zrotation
					JOINT RShoulder
					{
						OFFSET	-15.5945	-3.9480	0.9870
						CHANNELS 3 Xrotation Yrotation Zrotation
						JOINT RForearm
						{
							OFFSET	-31.3370	0.0000	0.1974
							CHANNELS 3 Xrotation Yrotation Zrotation
							JOINT RHand
							{
								OFFSET	-26.4021	0.0000	0.0000
								CHANNELS 3 Xrotation Yrotation Zrotation
								End Site
								{
									OFFSET	-15.7919	-0.9870	0.0000
								}
							}
						}
					}
				}
				JOINT LClavicle
				{
					OFFSET	23.6878	0.0000	-3.1584
					CHANNELS 3 Xrotation Yrotation Zrotation
					JOINT LShoulder
					{
						OFFSET	-15.5945	-3.9480	-0.9870
						CHANNELS 3 Xrotation Yrotation Zrotation
						JOINT LForearm
						{
							OFFSET	-31.3370	0.0000	-0.1974
							CHANNELS 3 Xrotation Yrotation Zrotation
							JOINT LHand
							{
								OFFSET	-26.4021	0.0000	0.0000
								CHANNELS 3 Xrotation Yrotation Zrotation
								End Site
								{
									OFFSET	-15.7919	-0.9870	0.0000
								}
							}
						}
					}
				}
			}
		}
	}
	JOINT RThigh
	{
		OFFSET	-8.8829	0.4481	0.0000
		CHANNELS 3 Xrotation Yrotation Zrotation
		JOINT RShin
		{
			OFFSET	43.1316	0.0000	-0.4935
			CHANNELS 3 Xrotation Yrotation Zrotation
			JOINT RFoot
			{
				OFFSET	0.0000	-44.7256	-0.4047
				CHANNELS 3 Xrotation Yrotation Zrotation
				JOINT RToe
				{
					OFFSET	0.0000	-3.9332	12.1953
					CHANNELS 3 Xrotation Yrotation Zrotation
					End Site
					{
						OFFSET	6.7725	0.0000	0.0000
					}
				}
			}
		}
	}
	JOINT LThigh
	{
		OFFSET	8.8829	0.4481	0.0000
		CHANNELS 3 Xrotation Yrotation Zrotation
		JOINT LShin
		{
			OFFSET	43.1316	0.0000	0.4935
			CHANNELS 3 Xrotation Yrotation Zrotation
			JOINT LFoot
			{
				OFFSET	0.0000	-44.7256	0.4047
				CHANNELS 3 Xrotation Yrotation Zrotation
				JOINT LToe
				{
					OFFSET	0.0000	-3.9332	-12.1953
					CHANNELS 3 Xrotation Yrotation Zrotation
					End Site
					{
						OFFSET	6.7725	0.0000	0.0000
					}
				}
			}
		}
	}
}
MOTION
Frames:	8
Frame Time: 0.0169491000
	8.5111	90.2529	-29.4071	-1.913638	12.798770	3.109792	-89.999990	-90.000000	0.000000	1.744960	-0.441140	0.262867	5.825263	-1.437757	0.927741	0.000000	0.000000	0.000000	0.000000	0.000000	0.000000	89.995860	-0.127088	-88.292370	-24.595940	34.426750	70.796230	78.828570	84.030280	-79.142140	0.000000	0.000000	0.000000	-90.017060	-0.228303	-93.074770	-26.879410	5.048253	61.812890	-5.806733	-45.807460	-8.425813	0.000000	0.000000	0.000000	46.328880	68.096240	-124.151300	89.768500	24.754020	90.024990	0.087141	2.857138	0.940642	155.661400	90.000000	0.000000	22.150110	81.840390	-126.954600	-89.583300	-40.164170	90.109550	11.144110	-1.267016	0.827918	186.736200	-90.000000	0.000000
	9.1680	88.0017	-29.8496	-1.792512	12.917330	3.235363	-89.999990	-90.000000	0.000000	1.698168	-0.467903	0.290872	5.670691	-1.524591	1.022772	0.000000	0.000000	0.000000	0.000000	0.000000	0.000000	89.995230	-0.181409	-87.562760	-22.369600	36.240220	71.093700	65.289570	83.564410	-65.681550	0.000000	0.000000	0.000000	-90.012900	-0.185324	-92.494820	-25.826730	5.874679	62.807640	-5.813209	-45.837920	-8.430458	0.000000	0.000000	0.000000	48.344780	67.574710	-126.351100	89.738970	27.539890	90.035160	-0.105257	0.582600	0.155568	147.119100	90.000000	0.000000	24.522720	80.081070	-130.502600	-89.532680	-43.541060	90.139880	17.409180	-1.953548	1.534533	185.623000	-90.000000	0.000000
	9.8052	85.9970	-30.5406	-1.577913	13.881090	3.376710	-89.999990	-90.000000	0.000000	1.635989	-0.502653	0.306368	5.464711	-1.639975	1.076373	0.000000	0.000000	0.000000	0.000000	0.000000	0.000000	89.995280	-0.233365	-86.864900	-19.419290	37.181230	71.319500	57.574200	83.083760	-58.018280	0.000000	0.000000	0.000000	-90.008620	-0.135347	-91.821110	-22.716240	8.160636	63.868660	-5.641259	-45.017650	-8.307963	0.000000	0.000000	0.000000	48.244560	66.222620	-127.243600	89.700500	30.986940	90.050440	-1.220664	-2.703438	-1.035005	143.386000	90.000000	0.000000	23.741080	77.530620	-131.950300	-89.464100	-47.602290	90.184730	22.695900	-1.805390	1.739440	183.140700	-90.000000	0.000000
	10.3132	84.1851	-31.1503	-1.399823	15.472350	3.381677	-89.999990	-90.000000	0.000000	1.553671	-0.541159	0.313951	5.191486	-1.769328	1.103014	0.000000	0.000000	0.000000	0.000000	0.000000	0.000000	89.995750	-0.273738	-86.322560	-15.482320	37.317120	71.092060	53.986470	82.788730	-54.457740	0.000000	0.000000	0.000000	-90.004770	-0.082908	-91.114880	-17.781620	11.391860	64.661010	-5.397274	-43.811590	-8.137201	0.000000	0.000000	0.000000	46.547450	64.034680	-126.877600	89.658020	34.544530	90.069790	-5.549961	-4.303399	-1.892118	145.359400	90.000000	0.000000	22.214660	75.369800	-133.012600	-89.380480	-51.848570	90.244240	26.650790	-1.611476	1.800279	181.471900	-90.000000	0.000000
	10.7436	82.7608	-31.5987	-1.219720	16.951260	3.092733	-89.999990	-90.000000	0.000000	1.451449	-0.577173	0.311600	4.851506	-1.891942	1.095124	0.000000	0.000000	0.000000	0.000000	0.000000	0.000000	89.996120	-0.293736	-86.053990	-10.603870	37.771870	69.919020	49.217720	82.306830	-49.729200	0.000000	0.000000	0.000000	-90.001720	-0.033400	-90.448690	-12.877200	13.918740	64.955380	-5.263659	-43.129510	-8.045275	0.000000	0.000000	0.000000	44.460240	61.864520	-126.017700	89.623390	37.252110	90.087340	-12.082450	-3.161383	-1.646725	150.574200	90.000000	0.000000	20.777450	74.369940	-133.800400	-89.298300	-55.381670	90.306820	29.569920	-1.706989	2.117336	180.591300	-90.000000	0.000000
	11.0491	81.9866	-32.1509	-0.811822	17.533370	2.555053	-89.999990	-90.000000	0.000000	1.334416	-0.603777	0.296776	4.461414	-1.984650	1.043697	0.000000	0.000000	0.000000	0.000000	0.000000	0.000000	89.996030	-0.289062	-86.116760	-6.091221	38.877590	68.791050	37.909300	80.565690	-38.544770	0.000000	0.000000	0.000000	-89.999630	0.007934	-89.892820	-9.271038	15.344400	65.007700	-5.366435	-43.655540	-8.115881	0.000000	0.000000	0.000000	42.943350	60.738610	-125.844300	89.601290	38.890390	90.099300	-16.754900	-1.545179	-0.860174	154.672700	90.000000	0.000000	19.643400	74.397890	-134.448400	-89.241440	-57.513890	90.352040	31.065260	-1.716993	2.259955	180.124500	-90.000000	0.000000
	11.1581	81.7000	-32.8464	-0.085027	16.917410	1.984361	-89.999990	-90.000000	0.000000	1.210695	-0.615097	0.272862	4.048272	-2.027021	0.960013	0.000000	0.000000	0.000000	0.000000	0.000000	0.000000	89.995560	-0.261047	-86.493070	-2.971189	39.659980	68.684020	26.236110	77.037280	-27.086940	0.000000	0.000000	0.000000	-89.998370	0.037483	-89.495540	-6.729002	16.250100	64.945140	-5.774732	-45.656460	-8.402897	0.000000	0.000000	0.000000	42.409600	60.999600	-127.107700	89.585570	40.014530	90.108130	-18.869290	-0.938970	-0.533895	156.874900	90.000000	0.000000	19.100410	75.161220	-135.511700	-89.210370	-58.584790	90.377300	31.282570	-1.606228	2.185750	180.002000	-90.000000	0.000000
	11.1036	81.5888	-33.4613	0.813241	15.371130	1.413007	-89.999990	-90.000000	0.000000	1.089387	-0.608518	0.251056	3.642963	-2.008967	0.882022	0.000000	0.000000	0.000000	0.000000	0.000000	0.000000	89.995190	-0.215502	-87.104840	-0.957882	39.098530	69.349210	19.229830	72.890830	-20.315550	0.000000	0.000000	0.000000	-89.997750	0.054438	-89.267650	-4.856761	16.476040	64.559490	-6.559639	-49.132660	-8.980886	0.000000	0.000000	0.000000	42.547320	62.040700	-129.178500	89.576710	40.632970	90.113240	-20.705510	-0.745665	-0.379443	159.479700	90.000000	0.000000	18.464070	76.232150	-136.242200	-89.193580	-59.138090	90.391110	31.315870	-1.414201	2.014759	180.001300	-90.000000	0.000000
